# xmcd
#
# Track frame offsets:
#	150
#	13197
#	27688
#	38083
#	49140
#	62676
#	72392
#	83477
#	97806
#	116480
#	128618
#	139283
#	152203
#	165256
#	181384
#	200565
#	209148
#	220397
#	233681
#	246697
#	257273
#	270616
#
# Disc length: 3729 seconds
#
# Revision: 0
# Processed by: cddbd v1.5.2PL0 Copyright (c) Steve Scherf et al.
# Submitted via: EasyCDDAExtractor 2010.4.0.0
#
DISCID=400e8f16
DTITLE=Various Artist - The Original Divas Box Set CD1
DYEAR=1900
DGENRE=
TTITLE0=Sarah Vaughan - Fly Me To The Moon (In Other Words)
TTITLE1=Peggy Lee - Everybody Loves Somebody
TTITLE2=Dinah Washington - Call Me Irresponsible
TTITLE3=Ella Fitzgerald - Misty Blue
TTITLE4=Eartha Kitt - Moon River
TTITLE5=Julie London - Mad About The Boy
TTITLE6=Edith Piaf - No Regrets
TTITLE7=Shirley Bassey - Let There Be Blues
TTITLE8=Judy Garland - The Man That Got Away
TTITLE9=Nancy Wilson - Try A Little Tenderness
TTITLE10=Dinah Shore - Skylark
TTITLE11=Bobbie Gentry - I'll Never Fall In Love Again
TTITLE12=Crystal Gayle - Talking In Your Sleep
TTITLE13=Billie Jo Spears - Blanket On The Ground
TTITLE14=Carmen McCrae - The Man I Love
TTITLE15=Dakota Staton - How High The Moon
TTITLE16=Jeri Southern - Let's Fly Away
TTITLE17=Annie Shelton - Arriverderci Darling
TTITLE18=Kay Starr - Changing Partners
TTITLE19=April Stevens - Touch Me Tiger
TTITLE20=Cilla Black - You're My World
TTITLE21=Billie Holliday - Blue Moon (Live)
EXTD=
EXTT0=
EXTT1=
EXTT2=
EXTT3=
EXTT4=
EXTT5=
EXTT6=
EXTT7=
EXTT8=
EXTT9=
EXTT10=
EXTT11=
EXTT12=
EXTT13=
EXTT14=
EXTT15=
EXTT16=
EXTT17=
EXTT18=
EXTT19=
EXTT20=
EXTT21=
PLAYORDER=
